<svg preserveAspectRatio="none" width="100%" height="100%" overflow="visible" style="display: block;" viewBox="0 0 19 19" fill="none" xmlns="http://www.w3.org/2000/svg">
<g id="icon-locked">
<g id="Ellipse 16" filter="url(#filter0_d_0_73)">
<circle cx="9.5" cy="8.5" r="8.5" fill="url(#paint0_linear_0_73)"/>
<circle cx="9.5" cy="8.5" r="8" stroke="var(--stroke-0, #94ABC0)"/>
</g>
<g id="Frame 49">
<path id="Subtract" d="M9.5 4C11.3104 4 12.8077 5.3363 13.0615 7.07617C13.5851 7.10799 14 7.54164 14 8.07324V12C14 12.5523 13.5523 13 13 13H6C5.44772 13 5 12.5523 5 12V8.07324C5 7.54197 5.41436 7.10847 5.9375 7.07617C6.19125 5.33623 7.68957 4 9.5 4ZM9.5 8C8.67157 8 8 8.67157 8 9.5C8 10.1528 8.41782 10.706 9 10.9121V12H10V10.9121C10.5822 10.706 11 10.1528 11 9.5C11 8.67157 10.3284 8 9.5 8ZM9.47363 5.17285C8.30722 5.17285 7.33228 5.98453 7.07715 7.07324H11.8691C11.6142 5.98466 10.6399 5.17305 9.47363 5.17285Z" fill="var(--fill-0, #C0C0C0)"/>
</g>
</g>
<defs>
<filter id="filter0_d_0_73" x="0" y="0" width="19" height="19" filterUnits="userSpaceOnUse" color-interpolation-filters="sRGB">
<feFlood flood-opacity="0" result="BackgroundImageFix"/>
<feColorMatrix in="SourceAlpha" type="matrix" values="0 0 0 0 0 0 0 0 0 0 0 0 0 0 0 0 0 0 127 0" result="hardAlpha"/>
<feOffset dy="1"/>
<feGaussianBlur stdDeviation="0.5"/>
<feComposite in2="hardAlpha" operator="out"/>
<feColorMatrix type="matrix" values="0 0 0 0 0 0 0 0 0 0 0 0 0 0 0 0 0 0 0.25 0"/>
<feBlend mode="normal" in2="BackgroundImageFix" result="effect1_dropShadow_0_73"/>
<feBlend mode="normal" in="SourceGraphic" in2="effect1_dropShadow_0_73" result="shape"/>
</filter>
<linearGradient id="paint0_linear_0_73" x1="9.5" y1="0" x2="9.5" y2="17" gradientUnits="userSpaceOnUse">
<stop stop-color="#064894"/>
<stop offset="1" stop-color="#014176"/>
</linearGradient>
</defs>
</svg>
