<svg width="16" height="16" viewBox="0 0 16 16" fill="none" xmlns="http://www.w3.org/2000/svg">
<g id="Money Merge (main)" clip-path="url(#clip0_219_98)">
<g id="Frame">
<g id="statusbar-diamods">
<g id="btn-plus">
<g id="Ellipse 1" filter="url(#filter0_d_219_98)">
<circle cx="8" cy="6" r="6" fill="#66B02D"/>
</g>
<g id="Union">
<mask id="path-2-outside-1_219_98" maskUnits="userSpaceOnUse" x="1.58627" y="-0.363351" width="12.7279" height="12.7279" fill="black">
<rect fill="white" x="1.58627" y="-0.363351" width="12.7279" height="12.7279"/>
<path d="M3.41433 5.95031C3.41434 5.46553 3.80724 5.07272 4.292 5.07264H7.03756L7.03894 2.65163C7.03899 2.16684 7.43181 1.77396 7.91661 1.77396C8.40125 1.77417 8.79423 2.16696 8.79428 2.65163V5.07264H11.3147C11.7996 5.07264 12.1924 5.46548 12.1924 5.95031C12.1924 6.43515 11.7996 6.82798 11.3147 6.82798L8.79428 6.82798V9.67436C8.79428 10.1592 8.40076 10.5527 7.91592 10.5527C7.43133 10.5526 7.03842 10.1597 7.03825 9.67505L7.03756 6.82798L4.292 6.82798C3.80723 6.8279 3.41433 6.4351 3.41433 5.95031Z"/>
</mask>
<path d="M3.41433 5.95031C3.41434 5.46553 3.80724 5.07272 4.292 5.07264H7.03756L7.03894 2.65163C7.03899 2.16684 7.43181 1.77396 7.91661 1.77396C8.40125 1.77417 8.79423 2.16696 8.79428 2.65163V5.07264H11.3147C11.7996 5.07264 12.1924 5.46548 12.1924 5.95031C12.1924 6.43515 11.7996 6.82798 11.3147 6.82798L8.79428 6.82798V9.67436C8.79428 10.1592 8.40076 10.5527 7.91592 10.5527C7.43133 10.5526 7.03842 10.1597 7.03825 9.67505L7.03756 6.82798L4.292 6.82798C3.80723 6.8279 3.41433 6.4351 3.41433 5.95031Z" fill="white"/>
<path d="M3.41433 5.95031L2.91433 5.9503L2.91433 5.95031L3.41433 5.95031ZM4.292 5.07264L4.292 4.57264L4.29192 4.57264L4.292 5.07264ZM7.03756 5.07264V5.57264L7.53728 5.57264L7.53756 5.07293L7.03756 5.07264ZM7.03894 2.65163L7.53894 2.65192L7.53894 2.65168L7.03894 2.65163ZM7.91661 1.77396L7.91682 1.27396L7.91661 1.27396L7.91661 1.77396ZM8.79428 2.65163H9.29428V2.65158L8.79428 2.65163ZM8.79428 5.07264L8.29428 5.07264V5.57264H8.79428L8.79428 5.07264ZM12.1924 5.95031H12.6924V5.9503L12.1924 5.95031ZM8.79428 6.82798L8.79428 6.32798H8.29428L8.29428 6.82798H8.79428ZM7.91592 10.5527L7.91575 11.0527H7.91592L7.91592 10.5527ZM7.03825 9.67505L6.53825 9.67517L6.53825 9.67522L7.03825 9.67505ZM7.03756 6.82798L7.53756 6.82786L7.53744 6.32798H7.03756L7.03756 6.82798ZM4.292 6.82798L4.29192 7.32798L4.292 7.32798L4.292 6.82798ZM3.41433 5.95031L3.91433 5.95032C3.91434 5.74175 4.08332 5.57268 4.29208 5.57264L4.292 5.07264L4.29192 4.57264C3.53115 4.57277 2.91435 5.18932 2.91433 5.9503L3.41433 5.95031ZM4.292 5.07264L4.292 5.57264L7.03756 5.57264V5.07264L7.03756 4.57264L4.292 4.57264L4.292 5.07264ZM7.03756 5.07264L7.53756 5.07293L7.53894 2.65192L7.03894 2.65163L6.53894 2.65135L6.53756 5.07236L7.03756 5.07264ZM7.03894 2.65163L7.53894 2.65168C7.53897 2.44294 7.708 2.27396 7.91661 2.27396L7.91661 1.77396L7.91661 1.27396C7.15561 1.27396 6.53902 1.89073 6.53894 2.65158L7.03894 2.65163ZM7.91661 1.77396L7.9164 2.27396C8.12522 2.27405 8.29426 2.44327 8.29428 2.65168L8.79428 2.65163L9.29428 2.65158C9.2942 1.89065 8.67728 1.27428 7.91682 1.27396L7.91661 1.77396ZM8.79428 2.65163L8.29428 2.65163L8.29428 5.07264L8.79428 5.07264H9.29428V2.65163H8.79428ZM8.79428 5.07264L8.79428 5.57264H11.3147L11.3147 5.07264V4.57264H8.79428V5.07264ZM11.3147 5.07264L11.3147 5.57264C11.5234 5.57264 11.6924 5.74162 11.6924 5.95032L12.1924 5.95031L12.6924 5.9503C12.6924 5.18935 12.0757 4.57264 11.3147 4.57264V5.07264ZM12.1924 5.95031L11.6924 5.95031C11.6924 6.15901 11.5234 6.32798 11.3147 6.32798V6.82798L11.3147 7.32798C12.0757 7.32798 12.6924 6.71129 12.6924 5.95031H12.1924ZM11.3147 6.82798V6.32798H8.79428L8.79428 6.82798V7.32798L11.3147 7.32798L11.3147 6.82798ZM8.79428 6.82798H8.29428V9.67436H8.79428L9.29428 9.67436L9.29428 6.82798L8.79428 6.82798ZM8.79428 9.67436H8.29428C8.29428 9.88306 8.12462 10.0527 7.91592 10.0527L7.91592 10.5527L7.91592 11.0527C8.6769 11.0527 9.29428 10.4353 9.29428 9.67436L8.79428 9.67436ZM7.91592 10.5527L7.9161 10.0527C7.7075 10.0526 7.53832 9.88346 7.53825 9.67489L7.03825 9.67505L6.53825 9.67522C6.53851 10.4358 7.15515 11.0525 7.91575 11.0527L7.91592 10.5527ZM7.03825 9.67505L7.53825 9.67493L7.53756 6.82786L7.03756 6.82798L6.53756 6.8281L6.53825 9.67517L7.03825 9.67505ZM7.03756 6.82798L7.03756 6.32798H4.292L4.292 6.82798L4.292 7.32798L7.03756 7.32798V6.82798ZM4.292 6.82798L4.29208 6.32798C4.08331 6.32795 3.91433 6.15888 3.91433 5.95031L3.41433 5.95031L2.91433 5.95031C2.91433 6.71133 3.53115 7.32786 4.29192 7.32798L4.292 6.82798Z" fill="black" fill-opacity="0.1" mask="url(#path-2-outside-1_219_98)"/>
</g>
</g>
</g>
</g>
</g>
<defs>
<filter id="filter0_d_219_98" x="0" y="0" width="16" height="16" filterUnits="userSpaceOnUse" color-interpolation-filters="sRGB">
<feFlood flood-opacity="0" result="BackgroundImageFix"/>
<feColorMatrix in="SourceAlpha" type="matrix" values="0 0 0 0 0 0 0 0 0 0 0 0 0 0 0 0 0 0 127 0" result="hardAlpha"/>
<feOffset dy="2"/>
<feGaussianBlur stdDeviation="1"/>
<feComposite in2="hardAlpha" operator="out"/>
<feColorMatrix type="matrix" values="0 0 0 0 0 0 0 0 0 0 0 0 0 0 0 0 0 0 0.25 0"/>
<feBlend mode="normal" in2="BackgroundImageFix" result="effect1_dropShadow_219_98"/>
<feBlend mode="normal" in="SourceGraphic" in2="effect1_dropShadow_219_98" result="shape"/>
</filter>
<clipPath id="clip0_219_98">
<rect width="384" height="844" fill="white" transform="translate(-284.5 -86.8281)"/>
</clipPath>
</defs>
</svg>
