<svg width="39" height="42" viewBox="0 0 39 42" fill="none" xmlns="http://www.w3.org/2000/svg">
<g id="Money Merge (main)">
<g id="Client-cards">
<g id="client-card1" filter="url(#filter0_d_219_98)">
<g id="order">
<g id="bubble" filter="url(#filter1_d_219_98)">
<mask id="path-1-outside-1_219_98" maskUnits="userSpaceOnUse" x="1.5" y="-0.5" width="35" height="39" fill="black">
<rect fill="white" x="1.5" y="-0.5" width="35" height="39"/>
<path d="M19.1836 0.5C28.3971 0.500235 35.8662 8.06134 35.8662 17.3887C35.8661 25.598 30.0799 32.4378 22.4111 33.96C22.4058 33.9626 22.4012 33.9675 22.3955 33.9697C21.5637 34.2915 19.2665 35.1589 15.7441 36.333C11.5122 37.7437 9.04888 37.3856 8.77051 37.3379C8.75279 37.3347 8.74153 37.3241 8.74902 37.3076C8.79126 37.2151 9.07179 36.7894 10.7441 34.833C11.2937 34.19 11.7195 33.4364 12.0547 32.6611C6.40717 29.9549 2.50006 24.1341 2.5 17.3887C2.5 8.0612 9.96987 0.5 19.1836 0.5Z"/>
</mask>
<path d="M19.1836 0.5C28.3971 0.500235 35.8662 8.06134 35.8662 17.3887C35.8661 25.598 30.0799 32.4378 22.4111 33.96C22.4058 33.9626 22.4012 33.9675 22.3955 33.9697C21.5637 34.2915 19.2665 35.1589 15.7441 36.333C11.5122 37.7437 9.04888 37.3856 8.77051 37.3379C8.75279 37.3347 8.74153 37.3241 8.74902 37.3076C8.79126 37.2151 9.07179 36.7894 10.7441 34.833C11.2937 34.19 11.7195 33.4364 12.0547 32.6611C6.40717 29.9549 2.50006 24.1341 2.5 17.3887C2.5 8.0612 9.96987 0.5 19.1836 0.5Z" fill="white"/>
<path d="M19.1836 0.5L19.1836 0H19.1836V0.5ZM35.8662 17.3887L36.3662 17.3887V17.3887H35.8662ZM22.4111 33.96L22.3138 33.4695L22.25 33.4822L22.1915 33.5108L22.4111 33.96ZM22.3955 33.9697L22.5759 34.4361L22.5759 34.4361L22.3955 33.9697ZM15.7441 36.333L15.9023 36.8074H15.9023L15.7441 36.333ZM8.77051 37.3379L8.68169 37.83L8.68611 37.8307L8.77051 37.3379ZM8.74902 37.3076L8.29422 37.0999L8.29383 37.1007L8.74902 37.3076ZM10.7441 34.833L11.1242 35.1579L11.1242 35.1579L10.7441 34.833ZM12.0547 32.6611L12.5136 32.8595L12.7045 32.4181L12.2708 32.2102L12.0547 32.6611ZM2.5 17.3887H2V17.3887L2.5 17.3887ZM19.1836 0.5L19.1836 1C28.1152 1.00023 35.3662 8.33169 35.3662 17.3887H35.8662H36.3662C36.3662 7.79099 28.679 0.000242114 19.1836 0L19.1836 0.5ZM35.8662 17.3887L35.3662 17.3887C35.3661 25.3589 29.7489 31.9937 22.3138 33.4695L22.4111 33.96L22.5085 34.4504C30.4108 32.8819 36.3661 25.8371 36.3662 17.3887L35.8662 17.3887ZM22.4111 33.96L22.1915 33.5108C22.1756 33.5186 22.1621 33.5262 22.1514 33.5326C22.1407 33.539 22.1319 33.5448 22.1256 33.5491C22.1194 33.5534 22.1145 33.5569 22.1121 33.5587C22.1108 33.5596 22.1097 33.5604 22.1094 33.5606C22.1087 33.5611 22.109 33.5609 22.1093 33.5607C22.1099 33.5603 22.1129 33.558 22.1171 33.5552C22.1214 33.5522 22.1279 33.5478 22.1362 33.5426C22.1524 33.5326 22.1793 33.5172 22.2151 33.5034L22.3955 33.9697L22.5759 34.4361C22.6145 34.4211 22.6442 34.4043 22.663 34.3926C22.681 34.3815 22.6948 34.3713 22.6976 34.3693C22.6985 34.3687 22.6994 34.368 22.6995 34.368C22.6997 34.3678 22.6993 34.3681 22.6987 34.3685C22.6975 34.3694 22.6938 34.3721 22.6889 34.3754C22.6796 34.3817 22.6591 34.3953 22.6307 34.4091L22.4111 33.96ZM22.3955 33.9697L22.2151 33.5034C21.39 33.8226 19.1003 34.6873 15.586 35.8587L15.7441 36.333L15.9023 36.8074C19.4327 35.6305 21.7374 34.7604 22.5759 34.4361L22.3955 33.9697ZM15.7441 36.333L15.586 35.8587C11.437 37.2417 9.05741 36.8797 8.85491 36.8451L8.77051 37.3379L8.68611 37.8307C9.04036 37.8914 11.5873 38.2457 15.9023 36.8074L15.7441 36.333ZM8.77051 37.3379L8.85933 36.8458C8.91014 36.855 9.0385 36.8878 9.14051 37.0151C9.19683 37.0854 9.23656 37.1757 9.24501 37.2775C9.25318 37.3758 9.23008 37.4576 9.20421 37.5145L8.74902 37.3076L8.29383 37.1007C8.22603 37.2499 8.21851 37.4636 8.36012 37.6404C8.47032 37.7779 8.61316 37.8176 8.68169 37.8299L8.77051 37.3379ZM8.74902 37.3076L9.20383 37.5153C9.19558 37.5334 9.2354 37.4517 9.52866 37.0779C9.80684 36.7234 10.2899 36.1339 11.1242 35.1579L10.7441 34.833L10.3641 34.5081C9.52603 35.4885 9.03266 36.0901 8.74192 36.4606C8.46627 36.812 8.34471 36.9893 8.29422 37.0999L8.74902 37.3076ZM10.7441 34.833L11.1242 35.1579C11.7152 34.4665 12.165 33.6661 12.5136 32.8595L12.0547 32.6611L11.5957 32.4627C11.2741 33.2068 10.8722 33.9136 10.3641 34.5081L10.7441 34.833ZM12.0547 32.6611L12.2708 32.2102C6.79242 29.5851 3.00006 23.937 3 17.3887L2.5 17.3887L2 17.3887C2.00006 24.3313 6.02191 30.3247 11.8386 33.112L12.0547 32.6611ZM2.5 17.3887H3C3 8.33157 10.2517 1 19.1836 1V0.5V0C9.68799 0 2 7.79082 2 17.3887H2.5Z" fill="#D5D5D5" mask="url(#path-1-outside-1_219_98)"/>
</g>
</g>
</g>
</g>
</g>
<defs>
<filter id="filter0_d_219_98" x="-83.2559" y="-30.167" width="126" height="158" filterUnits="userSpaceOnUse" color-interpolation-filters="sRGB">
<feFlood flood-opacity="0" result="BackgroundImageFix"/>
<feColorMatrix in="SourceAlpha" type="matrix" values="0 0 0 0 0 0 0 0 0 0 0 0 0 0 0 0 0 0 127 0" result="hardAlpha"/>
<feOffset dy="4"/>
<feGaussianBlur stdDeviation="2"/>
<feComposite in2="hardAlpha" operator="out"/>
<feColorMatrix type="matrix" values="0 0 0 0 0 0 0 0 0 0 0 0 0 0 0 0 0 0 0.25 0"/>
<feBlend mode="normal" in2="BackgroundImageFix" result="effect1_dropShadow_219_98"/>
<feBlend mode="normal" in="SourceGraphic" in2="effect1_dropShadow_219_98" result="shape"/>
</filter>
<filter id="filter1_d_219_98" x="0" y="0" width="38.3662" height="41.9131" filterUnits="userSpaceOnUse" color-interpolation-filters="sRGB">
<feFlood flood-opacity="0" result="BackgroundImageFix"/>
<feColorMatrix in="SourceAlpha" type="matrix" values="0 0 0 0 0 0 0 0 0 0 0 0 0 0 0 0 0 0 127 0" result="hardAlpha"/>
<feOffset dy="2"/>
<feGaussianBlur stdDeviation="1"/>
<feComposite in2="hardAlpha" operator="out"/>
<feColorMatrix type="matrix" values="0 0 0 0 0 0 0 0 0 0 0 0 0 0 0 0 0 0 0.25 0"/>
<feBlend mode="normal" in2="BackgroundImageFix" result="effect1_dropShadow_219_98"/>
<feBlend mode="normal" in="SourceGraphic" in2="effect1_dropShadow_219_98" result="shape"/>
</filter>
</defs>
</svg>
